<svg width="1835" height="2061" viewBox="0 0 1835 2061" fill="none" xmlns="http://www.w3.org/2000/svg">
<path d="M893.17 2059.3C1069.83 2080.11 1207.28 1904.74 1343.58 1790.44C1462.23 1690.93 1552.15 1569.48 1633.98 1438.01C1718.22 1302.66 1815.29 1169.13 1829.13 1010.3C1843.47 845.715 1836.76 646.124 1712.47 537.283C1582.35 423.344 1353.65 558.364 1207.46 465.931C1050.92 366.943 1066.02 85.7879 893.17 19.2291C731.071 -43.1912 543.573 58.131 399.175 154.68C258.794 248.542 150.414 390.621 97.7499 551.069C49.1345 699.183 91.5095 856.742 118.333 1010.3C141.406 1142.4 177.896 1268.44 243.486 1385.4C309.691 1503.45 406.182 1593.64 500.122 1691.08C626.883 1822.57 711.785 2037.94 893.17 2059.3Z" fill="#FBB829"/>
<path d="M1708.62 1031.23C1706.05 1024.47 1704.77 1017.39 1704.77 1010.29C1704.77 1003.19 1706.05 996.093 1708.62 989.356L1776.63 810.812C1782.5 795.388 1785.34 779.335 1785.34 763.548C1785.36 719.747 1763.59 677.492 1725.2 652.414L1565.19 547.943C1553.13 540.075 1544.35 527.973 1540.59 514.037L1490.66 329.6C1474.89 271.484 1422.24 231.536 1362.56 231.51C1360.32 231.51 1358.09 231.583 1355.82 231.703L1359.19 231.51L1165.54 241.208L1162.19 241.281C1148.74 241.281 1135.72 236.708 1125.23 228.287L976.436 108.448C952.202 88.8809 922.603 79.0373 893.192 79.0628C863.76 79.0373 834.16 88.8809 809.879 108.448L809.904 108.473L661.109 228.294C650.64 236.716 637.573 241.288 624.143 241.288L621.979 241.241L430.441 231.71H430.805C428.182 231.568 425.847 231.543 423.777 231.543C364.094 231.543 311.464 271.517 295.702 329.607L245.768 514.044C242.014 527.976 233.229 540.082 221.17 547.951L61.1634 652.421C22.7787 677.499 0.974559 719.779 1.00002 763.577C1.00002 779.364 3.8374 795.392 9.68677 810.794L77.7439 989.36C80.2939 996.096 81.5961 1003.2 81.5961 1010.29C81.5961 1017.4 80.3193 1024.47 77.7439 1031.21L9.70859 1209.79C3.8374 1225.17 1.00002 1241.2 1.00002 1256.99C0.974559 1300.78 22.7533 1343.09 61.1634 1368.19L221.17 1472.66C233.229 1480.53 242.01 1492.59 245.768 1506.52L295.702 1690.96C311.467 1749.07 364.119 1789.02 423.777 1789.02C425.847 1789.02 428.036 1788.99 430.397 1788.87L621.284 1779.34L621.644 1779.32L624.241 1779.25C637.599 1779.27 650.618 1783.84 661.109 1792.29L809.904 1912.16C834.16 1931.7 863.734 1941.54 893.192 1941.54C922.599 1941.54 952.202 1931.73 976.458 1912.16L1125.25 1792.29C1135.74 1783.82 1148.74 1779.25 1162.12 1779.25L1164.98 1779.34L1354.98 1788.82L1356.26 1788.87C1358.23 1788.97 1360.32 1789.02 1362.56 1789.02C1422.22 1789.02 1474.9 1749.09 1490.66 1690.96L1540.59 1506.52C1544.35 1492.59 1553.11 1480.53 1565.17 1472.66L1725.2 1368.19C1763.58 1343.07 1785.36 1300.81 1785.34 1257.01C1785.34 1241.22 1782.5 1225.17 1776.63 1209.77L1708.62 1031.23ZM1684.75 1306.32L1524.76 1410.76C1497.5 1428.55 1477.74 1455.76 1469.22 1487.22L1419.29 1671.63C1412.35 1697.41 1388.94 1715.1 1362.56 1715.1L1359.34 1715.02L1172.14 1705.66L1168.88 1705.52C1166.72 1705.4 1164.48 1705.32 1162.12 1705.32C1131.9 1705.32 1102.49 1715.67 1078.85 1734.73L930.06 1854.6C919.256 1863.29 906.31 1867.59 893.192 1867.59C880.053 1867.59 867.103 1863.29 856.302 1854.6L707.507 1734.73C683.877 1715.67 654.467 1705.32 624.241 1705.32C622.27 1705.35 620.007 1705.37 617.577 1705.52L426.738 1715.05L423.777 1715.1C397.426 1715.12 374.01 1697.39 367.08 1671.66L317.146 1487.2C308.626 1455.77 288.867 1428.55 261.577 1410.77L101.592 1306.3C84.579 1295.21 74.9501 1276.44 74.9283 1256.99C74.9283 1250.01 76.1797 1242.98 78.777 1236.15L146.809 1057.57C152.607 1042.36 155.521 1026.33 155.521 1010.3C155.521 994.274 152.607 978.246 146.809 963.012L78.777 784.497C76.176 777.615 74.9283 770.565 74.9283 763.584C74.9501 744.141 84.5536 725.418 101.567 714.323L261.602 609.856C288.867 592.025 308.626 564.804 317.146 533.378L367.08 348.919C374.013 323.194 397.455 305.457 423.777 305.482L426.378 305.529L427.196 305.577L615.533 314.984L617.744 315.082L624.147 315.224C654.397 315.224 683.804 304.922 707.486 285.89L856.281 166.021L833.105 137.24L856.306 165.996C867.11 157.309 880.056 153.027 893.196 152.977C906.313 153.002 919.26 157.309 930.063 166.021L1078.88 285.868C1102.57 304.951 1132 315.227 1162.2 315.227C1164.44 315.227 1166.48 315.18 1168.34 315.107L1362.97 305.387L1359.73 305.555L1362.56 305.46C1388.91 305.46 1412.36 323.197 1419.29 348.923L1469.22 533.382C1477.74 564.811 1497.5 592.028 1524.76 609.838L1684.77 714.33C1701.79 725.425 1711.42 744.148 1711.42 763.57C1711.42 770.55 1710.19 777.575 1707.54 784.53L1639.55 963.045C1633.73 978.279 1630.84 994.307 1630.84 1010.31C1630.84 1026.34 1633.76 1042.36 1639.55 1057.57L1707.56 1236.12C1710.19 1243.02 1711.42 1250.05 1711.42 1257.03C1711.42 1276.43 1701.79 1295.2 1684.75 1306.32Z" fill="black" stroke="black" stroke-width="1.30208"/>
<g clip-path="url(#clip0_206_46)">
<path d="M905.941 471.197C858.671 471.92 810.932 478.681 765.017 494.214L768.455 503.209C765.23 508.252 764.9 517.14 767.397 531.384C768.61 538.301 769.048 542.294 768.058 545.273C766.324 546.595 764.585 548.517 763.035 550.961C761.885 551.689 760.516 552.392 758.937 553.209L747.7 559.03L752.723 596.332C755.44 616.908 757.881 634.117 758.143 634.561C758.406 635.005 763.536 632.838 769.645 629.667C778.018 625.32 783.223 625.024 790.797 628.476C796.321 630.995 800.844 634.495 800.844 636.281C800.844 643.23 777.974 657.048 766.472 657.048C757.073 657.048 754.309 659.051 754.309 665.779C754.309 670.55 751.211 680.431 747.435 687.736C742.348 697.58 741.343 707.212 743.205 725.039C745.965 751.464 739.298 762.87 721.392 762.87C716.456 762.87 710.959 765.514 709.098 768.691C707.237 771.867 699.474 777.654 691.913 781.522C678.772 788.242 673.002 800.966 683.056 800.966C686.16 800.966 686.995 806.166 685.435 815.781C682.648 832.964 684.625 834.053 697.73 821.734L707.38 812.739L721.922 821.734L736.596 830.861L748.626 820.676C764.425 807.48 785.671 796.733 795.952 796.733C802.668 796.733 805.122 801.572 809.304 823.188C812.12 837.739 815.261 862.61 816.311 878.347C818.586 912.451 813.158 917.523 791.59 901.364C773.332 887.684 752.441 877.158 743.338 877.158C739.334 877.158 732.4 873.996 728.003 870.015C721.455 864.085 719.406 863.726 716.502 868.427C710.798 877.661 700.567 870.568 691.384 850.967C684.229 835.692 683.146 834.767 685.039 845.411C688.561 865.212 696.182 877.76 707.117 881.919C716.055 885.32 716.914 887.763 714.916 903.745C704.729 985.244 702.194 1035.71 706.984 1063.67C709.766 1079.9 712.008 1101.39 712.008 1111.42C712.008 1130.57 721.838 1144.33 739.505 1149.78C744.158 1151.22 759.387 1163.84 773.347 1177.96C787.307 1192.08 804.682 1207.26 811.816 1211.69C824.253 1219.4 824.97 1221.54 829.794 1263.28C836.8 1323.87 837.209 1321.16 818.69 1324.12C809.284 1325.63 796.347 1332.4 787.228 1340.53C778.6 1348.21 762.702 1356.66 751.402 1359.57C669.623 1380.67 631.639 1393.02 597.789 1409.71L566.062 1425.32L565.665 1431.14L534.203 1437.35C139.282 1848.77 509.297 1437.47 558.131 1554.29C552.373 1557.47 546.844 1560.9 541.871 1565C547.767 1562.56 553.857 1560.86 559.982 1559.58C560.35 1560.81 560.73 1561.96 561.039 1563.28C561.253 1561.96 561.486 1560.63 561.7 1559.31C562.714 1559.11 563.723 1558.96 564.741 1558.78C565.33 1560.86 566.3 1561.95 567.781 1561.03C568.633 1560.5 569.237 1559.33 569.632 1557.99C571.784 1557.67 573.948 1557.34 576.11 1557.06C588.496 1555.52 601.006 1554.69 613.918 1553.36C626.156 1552.16 638.989 1550.33 652.256 1546.08C661.103 1543.34 670.111 1539.04 678.43 1532.33C679.311 1534.83 680.009 1536.76 680.942 1539.47C685.714 1553.32 691.378 1565.17 693.633 1565.93C695.888 1566.68 700.918 1561.1 704.738 1553.49L711.612 1539.6L711.215 1561.17C710.973 1573.02 713.503 1588.8 716.767 1596.22L722.584 1609.71L725.493 1593.71C729.008 1573.51 724.756 1507.86 719.94 1507.86C717.959 1507.86 716.239 1504.03 716.239 1499.26C716.239 1494.49 711.772 1486.4 706.324 1481.27C694.501 1470.14 689.209 1448.01 696.409 1440C699.192 1436.9 696.005 1437.79 689.271 1441.98C678.018 1448.99 676.708 1449.02 673.142 1442.65C673.007 1442.4 672.888 1442.21 672.746 1441.98L673.275 1441.19C673.007 1441.33 672.657 1441.38 672.349 1441.45C670.282 1438.43 667.637 1436.69 666.136 1437.62C664.435 1438.67 662.864 1436.4 662.567 1432.46C661.996 1424.88 678.804 1414.74 692.046 1414.74C701.776 1414.74 697.585 1422.55 685.172 1427.57C676.674 1431 676.904 1431.15 687.552 1431.4C693.813 1431.55 699.994 1433.57 701.432 1435.9C705.682 1442.78 748.263 1441.08 754.312 1433.78C757.208 1430.29 762.561 1427.43 766.077 1427.43C774.305 1427.43 809.958 1464.05 816.841 1479.55C821.464 1489.96 824.127 1491.28 837.993 1490.13C848.427 1489.27 853.981 1486.64 854.253 1482.46C855.21 1467.76 856.127 1465.19 859.673 1467.38C861.73 1468.65 865.589 1464.49 868.266 1458.12C871.638 1450.09 880.231 1443.48 896.16 1436.56C908.804 1431.07 928.131 1418.2 939.256 1407.99C950.488 1397.68 967.007 1387.32 976.403 1384.71C985.71 1382.12 1001.71 1375.11 1011.96 1369.1C1028.09 1359.64 1059.2 1347.04 1096.97 1334.57C1117.28 1327.87 1165.91 1304.49 1163.86 1302.43C1162.72 1301.29 1152.8 1304.43 1141.78 1309.31C1122.21 1317.97 1095.52 1328.04 1035.63 1349.79C1007.54 1359.98 908.362 1389.19 901.182 1389.34C899.332 1389.37 893.174 1384.63 887.434 1378.89C877.996 1369.44 877.231 1366.1 879.502 1343.96C880.131 1337.84 880.528 1333.29 880.56 1330.08C881.205 1326.31 881.639 1322.62 882.014 1319.1C882.525 1315.11 882.918 1311.31 883.336 1307.46C884.048 1304.4 884.39 1300.83 884.525 1297.27C885.285 1291.7 886.327 1286.5 887.83 1281.93L883.6 1282.06L883.865 1280.87C903.618 1285.44 924.12 1287.76 944.279 1286.42C967.261 1286.9 990.505 1285.32 1013.55 1280.34C1035.41 1274.05 1056.83 1262.68 1075.02 1244.76C1075.44 1244.48 1075.93 1244.24 1076.34 1243.96L1076.21 1243.83C1076.42 1243.77 1076.64 1243.75 1076.87 1243.7C1085.66 1241.75 1089.83 1236.22 1087.98 1231.13C1089.56 1230.98 1091.15 1230.77 1092.74 1230.6C1091.19 1230.44 1089.65 1230.24 1088.11 1230.07C1090.17 1227.38 1092.14 1224.66 1094.06 1221.74C1083.06 1215.9 1071.14 1207.5 1057.04 1199.12C1042.1 1201.91 1027.7 1204.61 1015.67 1206.66L1016.2 1209.7C1015.84 1209.56 1015.49 1209.45 1015.14 1209.31C1013.61 1208.68 1012.05 1208.07 1010.51 1207.45C988.323 1211.05 977.907 1211.4 998.745 1202.82C998.259 1202.64 997.779 1202.48 997.291 1202.29C1002.86 1200.54 1008.32 1198.78 1013.68 1197V1197.14C1016.36 1196.16 1019.01 1195.2 1022.15 1194.09C1039.02 1188.36 1053.6 1182.98 1062.07 1179.01C1083.99 1168.77 1086.14 1166.26 1084.54 1150.97C1083.62 1142.18 1095.66 1126.9 1103.58 1126.9C1106.45 1126.9 1110.05 1122.13 1111.51 1116.31C1112.97 1110.49 1117.13 1105.73 1120.76 1105.73C1124.4 1105.73 1138.39 1099.27 1151.96 1091.31L1176.68 1076.9L1171 1090.26C1166.32 1101.47 1166.4 1105.55 1171.13 1114.33C1176.5 1124.29 1175.92 1125.35 1161.22 1134.7C1145.81 1144.5 1145.75 1144.65 1158.31 1141.84C1189.74 1134.83 1201.13 1134.74 1206.69 1141.45C1209.75 1145.14 1214.5 1148.06 1217.27 1148.06C1225.23 1148.06 1240.95 1124.14 1247.14 1102.43C1261.89 1050.69 1285.8 996.488 1298.7 985.625C1305.95 979.523 1314.98 966.727 1318.79 957.185C1330.3 928.409 1331.92 834.686 1320.78 841.575C1318.73 842.839 1316.94 829.561 1316.94 812.078C1316.94 776.716 1310.38 740.022 1301.61 726.627C1298.44 721.788 1295.49 713.033 1295 707.05C1294.46 700.514 1292.34 697.271 1289.18 698.056C1289.18 698.047 1289.05 698.064 1289.05 698.056C1288.91 698.098 1288.8 698.132 1288.65 698.188C1285.65 699.341 1283.1 698.322 1283.1 695.939C1283.1 693.739 1285.05 691.455 1287.46 690.384C1288.1 692.932 1288.52 695.479 1289.05 698.056C1288.69 695.352 1288.34 692.676 1287.86 689.987C1287.9 689.974 1287.96 690 1287.99 689.987C1294 687.982 1289.89 668.607 1281.65 660.356C1280.85 659.561 1279.97 658.557 1279.13 657.446C1279.1 657.399 1279.04 657.36 1279 657.314C1275.81 648.675 1271.92 640.183 1267.5 632.049C1256.27 611.355 1241.45 592.689 1224.27 576.36C1186.9 540.855 1139.81 516.121 1090.89 499.507C1038.13 481.506 982.283 472.272 926.173 471.199C919.448 471.059 912.7 471.096 905.947 471.199L905.941 471.197ZM1013.68 1197.14C1007.56 1199.37 1002.61 1201.23 998.744 1202.82C1002.72 1204.32 1006.62 1205.89 1010.51 1207.45C1012.22 1207.18 1013.82 1206.97 1015.67 1206.66L1013.68 1197.14ZM673.28 1441.19C674.298 1440.67 674.932 1439.79 675.131 1438.28L673.28 1441.19ZM933.449 502.428C935.671 514.907 943.931 519.664 970.067 525.709C975.884 527.054 986.729 527.487 994.127 526.635C1004.27 525.466 1007.01 523.421 1005.1 518.433C1003.43 514.071 1004.22 512.844 1007.48 514.862C1010.2 516.545 1012.37 515.872 1012.37 513.407C1012.37 510.941 1010.47 508.909 1008.14 508.909C1006.19 508.909 1004.66 507.031 1004.17 504.544C1031.45 507.138 1058.51 511.758 1085.08 518.83C1132.98 531.659 1179.53 551.762 1217.81 583.515C1220.46 585.714 1223.04 588.081 1225.6 590.393C1225.11 591.171 1225.2 592.276 1226 593.568C1227.44 595.896 1229.47 597.801 1230.5 597.801C1231.09 597.801 1231.61 597.193 1231.95 596.213C1238.11 602.186 1243.97 608.475 1249.4 615.129V626.108C1249.39 633.48 1251.65 640.41 1254.56 641.585C1258.79 643.293 1258.79 643.83 1254.56 644.098C1247.12 644.568 1247.95 656.896 1255.61 659.839C1259.1 661.179 1261.96 665 1261.96 668.437C1261.96 671.874 1260.53 674.044 1258.79 673.199C1205.43 647.349 1186.83 639.688 1160.43 632.457C1097.84 615.312 1061.27 609.725 1007.48 609.177C1011.34 604.738 1014.1 598.223 1015.28 589.732C1015.08 582.679 1013.32 575.869 1010.12 569.759C1006.73 563.539 1002.5 558.518 997.961 554.679C986.985 545.514 975.193 540.149 964.119 536.821C936.763 528.163 908.907 525.652 882.025 525.445C873.851 520.27 865.337 515.531 856.51 511.159C879.505 506.706 903.032 503.903 926.707 502.693C928.961 502.582 931.192 502.512 933.449 502.428ZM974.959 502.56C979.89 502.755 984.839 502.89 989.766 503.222C990.722 504.26 991.22 505.429 991.22 506.793C991.22 513.118 985.459 514.44 975.356 510.365C970.424 508.375 971.148 504.826 974.959 502.56ZM898.153 517.905C896.236 517.905 894.319 518.243 892.865 518.83C889.957 520.005 892.336 520.947 898.153 520.947C903.97 520.947 906.349 520.005 903.441 518.83C901.987 518.243 900.07 517.905 898.153 517.905ZM947.728 553.355C947.324 553.622 946.945 553.888 946.538 554.149C946.487 554.115 946.457 554.049 946.406 554.017C946.846 553.787 947.291 553.592 947.728 553.355ZM959.097 574.123C961.413 574.503 963.782 574.951 966.103 575.446C967.77 576.511 969.374 577.578 970.73 578.753C969.933 578.489 969.137 578.232 968.35 577.959C968.531 577.835 968.699 577.687 968.879 577.562C965.568 576.463 962.337 575.311 959.097 574.123ZM980.249 580.472C979.99 580.63 979.812 581.163 979.588 581.53C979.226 581.425 978.891 581.24 978.53 581.134C979.461 580.907 979.826 580.634 980.249 580.472ZM968.483 638.409C1021.74 636.962 1111.88 655.48 1125.53 673.066C1132.66 682.244 1132.2 687.011 1124.48 684.045C1120.99 682.705 1118.13 683.716 1118.13 686.293C1118.13 688.871 1120.99 690.923 1124.48 690.923C1132.6 690.923 1132.62 697.064 1124.48 705.209C1119.38 710.313 1119.06 713.721 1122.89 722.141C1125.64 728.174 1126.5 739.128 1124.87 747.803C1121.97 763.285 1118.75 765.984 1111.65 758.914C1109.12 756.39 1107.44 759.519 1107.16 767.38C1106.91 774.238 1108.34 779.814 1110.33 779.814C1112.32 779.814 1113.9 781.999 1113.9 784.576C1113.9 787.153 1110.93 788.091 1107.29 786.692C1102.21 784.74 1101.27 786.166 1103.32 792.645H1103.46C1105.71 799.735 1104.22 801.002 1094.2 800.846C1080.18 800.627 1054.68 792.001 1040.53 782.724C1027.37 774.095 983.863 761.581 976.68 764.337C970.834 766.582 927.768 755.397 927.768 751.639C927.768 750.465 933.955 750.731 941.516 752.168C954.201 754.578 954.597 754.419 946.143 749.39C941.104 746.392 933.005 738.768 928.164 732.592C921.38 723.934 914.362 720.802 897.231 718.703C857.516 713.835 839.194 715.633 815.665 726.771C791.463 738.228 781.818 739.933 777.856 733.517C775.338 729.44 795.905 707.856 802.314 707.856C804.272 707.856 813.767 701.443 823.466 693.57C853.669 669.051 899.716 649.391 948.261 640.261C954.029 639.177 960.879 638.616 968.487 638.409L968.483 638.409ZM1140.2 674.521C1145.23 674.529 1151.97 678.233 1151.97 682.325C1151.97 687.701 1147.6 687.904 1139.41 682.722C1135.99 680.556 1134.53 677.422 1136.11 675.843C1137.07 674.875 1138.53 674.518 1140.2 674.521ZM1145.23 700.845C1146.75 700.589 1147.74 701.509 1147.74 703.358C1147.74 705.823 1145.84 707.855 1143.51 707.855C1141.18 707.855 1139.28 707.03 1139.28 706.003C1139.28 704.977 1141.18 702.945 1143.51 701.506C1144.09 701.146 1144.72 700.93 1145.23 700.845ZM902.918 747.274C906.457 746.976 906.117 751.122 902.654 760.237C898.389 771.462 896.276 772.507 886.526 768.571C878.424 765.3 880.191 760.312 892.21 752.433C897.229 749.142 900.795 747.453 902.918 747.274ZM930.284 767.91C933.613 767.965 938.004 768.867 943.635 770.556C952.462 773.202 963.569 774.321 968.356 773.069C973.182 771.806 987.701 775.637 1000.88 781.667C1013.95 787.648 1027.04 792.864 1030.09 793.175C1033.15 793.486 1026.13 795.198 1014.49 797.011C980.171 802.36 969.408 800.934 943.372 787.487C926.042 778.536 920.013 773.294 923.145 770.158C924.712 768.59 926.954 767.854 930.284 767.91ZM726.569 775.847C730.478 775.418 733.179 780.218 733.179 790.133C733.179 807.432 728.875 811.237 718.109 803.36C711.026 798.178 710.855 796.548 716.126 786.694C719.838 779.753 723.529 776.18 726.569 775.847ZM824.528 798.069C826.091 798.174 827.698 799.907 829.022 803.361C830.563 807.377 829.216 811.942 825.85 814.075C822.601 816.133 822.068 817.877 824.66 817.911C827.325 817.949 829.419 825.264 829.419 834.843C829.419 844.155 828.604 851.775 827.7 851.775C824.027 851.775 817.786 829.163 817.786 815.795C817.786 804.948 821.087 797.838 824.528 798.069ZM935.177 809.71C940.481 809.71 944.696 810.983 944.696 813.678C944.696 816.006 937.557 817.945 928.832 817.911C917.032 817.863 914.594 816.73 919.314 813.678C923.483 810.983 929.874 809.71 935.177 809.71ZM1029.17 817.779C1058.53 817.051 1097.86 823.561 1135.06 836.166C1160.4 844.75 1181.25 849.709 1183.71 847.674C1190.51 842.059 1218.64 837.882 1230.24 840.795C1241.44 843.608 1250.89 855.541 1255.63 872.939C1258.19 882.367 1257.59 882.172 1250.21 870.558C1237.45 850.495 1220.24 845.048 1191.11 852.039C1177.96 855.196 1163.82 861.232 1159.65 865.399C1155.49 869.566 1150.31 872.939 1148.15 872.939C1140.26 872.939 1141.73 887.793 1151.59 907.727C1161.34 927.439 1161.41 928.479 1154.1 936.564C1149.93 941.174 1144.06 944.898 1141.01 944.898C1134.22 944.898 1125.32 960.483 1128.85 966.194C1133.22 973.269 1142.52 970.713 1144.85 961.829C1147.46 951.842 1159.68 950.8 1171.28 959.581C1175.8 962.998 1182.81 965.856 1186.88 965.93C1190.96 966.004 1194.29 968.792 1194.29 972.147C1194.29 988.459 1211.78 983.706 1223.9 964.078C1235.73 944.92 1234.56 942.809 1218.61 953.893C1205.66 962.893 1205.4 962.918 1212.66 954.554C1218.73 947.566 1220.07 939.714 1219.27 917.648C1217.96 881.316 1224 874.729 1237.25 897.938C1247.88 916.555 1253.37 919.737 1253.91 907.859C1254.12 903.088 1255 902.461 1256.42 906.007C1259.33 913.281 1249.39 936.979 1244.66 934.05C1242.63 932.794 1241.83 934.326 1242.94 937.357C1246.06 945.931 1222.38 980.261 1202.09 996.617C1172.88 1020.16 1144.59 1027.14 1130.3 1014.21C1124.17 1008.66 1121.29 1008.34 1116.29 1012.49C1107.61 1019.7 1102 1014.83 1104.39 1002.3C1106.92 989.094 1095.02 976.363 1081.79 978.098C1070.1 979.631 1053.48 971.514 1056.93 965.929C1060.54 960.098 1053.19 960.999 1039.62 968.045C1025.64 975.301 1017.11 972.032 1028.12 963.68C1034.79 958.617 1034.78 957.845 1028.78 957.727C1018.98 957.536 1013.34 965.913 1011.72 982.992C1010.95 991.131 1008.36 997.905 1006.04 997.939C1003.71 997.973 999.319 999.567 996.256 1001.51C993.193 1003.45 989.621 1004 988.324 1002.7C987.305 1001.68 984.559 1003.05 981.582 1005.74C979.283 1005.98 977 1006.19 974.708 1006.4L972.063 1004.82C971.949 1005.27 971.887 1005.71 971.799 1006.14C968.365 1005.26 965.049 1004.22 961.884 1002.97L962.149 1007.46C961.093 1007.54 960.03 1007.67 958.976 1007.73C960.969 1003.53 956.838 1003.1 947.211 1006.8C946.378 1007.12 945.568 1007.59 944.831 1008.12C933.037 1008.21 921.387 1007.53 910.064 1006.01C909.148 1005.1 906.022 1004.2 900.281 1003.1C895.807 1002.24 893.369 1002.16 892.614 1002.83C886.833 1001.52 881.181 999.926 875.692 998.072L871.99 1020.56C870.516 1014.98 869.379 1008.61 868.553 1002.44L877.014 985.107C877.066 985.073 877.096 985.008 877.146 984.975C879.742 983.286 881.14 980.381 881.244 976.774C881.245 976.73 881.243 976.686 881.244 976.642L884.681 969.763C883.25 969.943 881.726 969.985 880.187 969.895C878.767 965.229 875.85 960.265 871.726 956.139C862.178 946.585 859.057 928.277 866.042 923.201C868.094 921.709 865.715 919.221 860.754 917.645C849.485 914.067 849.22 906.873 860.093 893.042C864.746 887.122 868.553 879.096 868.553 875.317C868.553 871.537 871.885 867.454 875.956 866.19C880.028 864.925 896.685 857.334 912.971 849.391C929.259 841.448 951.149 833.824 961.62 832.459C972.09 831.095 987.735 827.109 996.388 823.465C1004.5 820.046 1015.83 818.107 1029.17 817.777L1029.17 817.779ZM841.445 818.837C848.061 817.971 872.211 840.057 869.999 845.822C868.725 849.143 866.471 851.872 864.975 851.906C863.479 851.94 858.205 853.078 853.21 854.42C845.273 856.55 843.776 854.584 841.18 839.208C839.546 829.53 839.145 820.608 840.387 819.366C840.659 819.093 841.003 818.895 841.445 818.837ZM1137.83 866.324C1135.46 866.47 1132.07 866.974 1127.66 867.647C1116.63 869.327 1114.77 870.918 1118.53 875.451C1122.47 880.193 1124.88 880.024 1133.47 874.393C1143.01 868.142 1144.96 865.887 1137.83 866.324ZM815.405 922.806C826.479 923.092 833.961 929.05 836.028 939.87C839.289 956.935 835.361 961.897 819.504 960.77C811.606 960.208 805.098 958.688 805.094 957.33C805.089 955.972 802.239 954.817 798.749 954.817C791.218 954.817 791.184 955.641 796.898 966.325C801.889 975.658 801.685 975.764 774.557 966.59C768.184 964.435 762.514 961.836 758.825 959.579C766.398 951.504 773.315 942.224 778.919 931.537C783.982 930.57 791.514 928.373 798.22 925.981C804.544 923.725 810.372 922.677 815.405 922.806ZM733.971 956.802C733.008 959.021 731.932 961.279 730.931 963.548C730.813 962.638 731.111 961.443 731.724 959.844C732.195 958.615 732.988 957.612 733.971 956.802ZM1150.13 972.014C1148.92 972.056 1147.67 972.33 1146.43 972.807C1137.15 976.373 1137.29 989.943 1146.7 995.427C1157.37 1001.65 1159.65 1001.06 1162.82 991.062C1165.89 981.413 1158.63 971.726 1150.13 972.014ZM768.745 996.881C774.997 996.76 782.062 997.667 788.707 999.659C821.325 1009.44 851.927 1049.12 832.597 1056.54C829.107 1057.88 826.251 1057.12 826.251 1054.95C826.251 1052.78 822.444 1048.98 817.79 1046.49C811.011 1042.85 809.33 1043.31 809.33 1048.6C809.33 1052.23 814.089 1056.97 819.905 1059.18C825.722 1061.4 830.481 1066.16 830.481 1069.77C830.481 1073.37 835.716 1078.46 842.115 1081.01C849.376 1083.9 851.727 1086.45 848.196 1087.76C845.084 1088.9 840.389 1087.75 837.884 1085.24C834.633 1081.99 831.136 1083.21 825.59 1089.61C821.318 1094.54 817.79 1099.77 817.79 1101.25C817.79 1105.67 801.194 1104.34 799.679 1099.79C798.909 1097.48 791.434 1095.16 783.155 1094.63C774.876 1094.1 760.701 1090.25 751.692 1086.17C742.682 1082.09 732.65 1078.65 729.351 1078.5C718.7 1078.01 720.115 1069.74 732.921 1057.46C744.383 1046.48 747.46 1045.56 769.804 1047.41C783.206 1048.52 794.822 1051.61 795.715 1054.29C798.654 1063.11 804.269 1059.38 803.647 1049C803.311 1043.4 801.293 1040 799.152 1041.33C797.012 1042.65 796.477 1040.57 797.962 1036.7C799.448 1032.82 799.267 1029.55 797.566 1029.55C795.864 1029.55 792.592 1025.26 790.295 1020.03C784.488 1006.81 764.472 997.653 756.32 1004.42C752.105 1007.92 750.106 1008.03 750.106 1004.82C750.106 1000 758.326 997.084 768.745 996.881ZM998.499 1268.18C998.194 1268.35 997.88 1268.53 997.573 1268.71C995.672 1268.87 993.77 1269.1 991.889 1269.23C994.096 1268.88 996.297 1268.52 998.499 1268.18ZM1258.67 1272.94L1250.87 1281.01L1229.19 1303.23C1258.94 1326.19 1293.05 1335.22 1325.43 1339.08C1337.03 1340.55 1348.62 1341.4 1360.19 1341.72C1360.42 1341.73 1360.63 1341.72 1360.85 1341.72C1379.69 1343.13 1399.15 1342.48 1406.73 1339.87C1407.84 1339.75 1408.92 1339.61 1410.03 1339.47C1409.41 1339.4 1408.8 1339.29 1408.18 1339.21C1409.35 1338.63 1410.03 1337.96 1410.03 1337.23C1410.03 1331.58 1361.33 1318.9 1336 1317.91C1330.56 1317.7 1325.15 1316.8 1319.74 1315.53C1319.61 1315.5 1319.48 1315.43 1319.35 1315.4C1294.62 1304.83 1272.1 1291.36 1258.67 1272.94ZM1285.5 1278.76C1280.7 1278.77 1282.87 1283.15 1294.76 1289.6C1301.16 1293.08 1310.13 1295.99 1314.59 1296.09C1324.67 1296.3 1323.43 1295.32 1301.1 1284.05C1293.77 1280.35 1288.39 1278.75 1285.5 1278.76ZM1251.66 1323.86C1250.47 1323.95 1249.37 1324.01 1248.23 1324.26C1243.42 1324.89 1238.64 1326.9 1234.61 1329.95C1230.31 1333.31 1227.63 1337.84 1226.54 1342.65C1225.41 1348.89 1226.52 1354.15 1228.53 1358.52C1231.62 1365.43 1236.1 1370.83 1240.82 1375.72C1238.74 1369.25 1237.3 1362.71 1237.65 1356.67C1237.94 1352.91 1238.73 1349.46 1240.56 1347.94C1241.69 1346.94 1243.3 1346.5 1244.39 1346.75C1244.84 1346.76 1245.25 1346.98 1245.71 1347.15C1244.78 1347.09 1243.09 1347.39 1241.22 1348.6L1270.83 1378.76C1274.84 1374.01 1278.62 1366.82 1280.75 1357.73C1282.3 1350.87 1280.98 1343.34 1277.05 1336.43C1269.39 1326.73 1260.02 1323.26 1251.66 1323.86ZM1246.37 1347.28C1246.98 1347.49 1247.65 1347.65 1248.23 1347.94C1250.66 1349.92 1252.29 1351.9 1248.89 1351.11C1247.7 1349.5 1246.54 1348.42 1246.37 1347.28ZM648.308 1430.48C648.295 1430.52 648.321 1430.57 648.308 1430.61C648.097 1430.84 647.849 1431.04 647.647 1431.27C647.618 1431.2 647.677 1431.09 647.647 1431.01C647.859 1430.85 648.099 1430.64 648.308 1430.48ZM606.269 1467.65C606.213 1468 606.195 1468.36 606.137 1468.71C606.017 1468.48 605.86 1468.27 605.741 1468.05C605.927 1467.92 606.076 1467.77 606.269 1467.65ZM752.744 1493.05L749.571 1509.98C745.599 1531.33 745.01 1607.14 748.778 1610.91C750.329 1612.46 758.717 1613.68 767.417 1613.68C782.527 1613.68 783.487 1612.78 789.89 1593.58C796.489 1573.79 796.426 1573.67 788.7 1583.66L780.9 1593.84L777.86 1573.08C776.18 1561.68 772.223 1546.59 769.135 1539.61C766.047 1532.62 761.15 1519.29 758.162 1509.98L752.744 1493.05ZM565.684 1535.24C565.924 1536.52 566.115 1537.82 566.345 1539.08C565.099 1542.53 564.297 1546.96 564.098 1550.98C563.727 1551.17 563.409 1551.46 563.04 1551.65C563.933 1546.18 564.747 1540.7 565.684 1535.24ZM859.83 1545.03L869.48 1560.11C876.767 1571.5 881.204 1574.59 887.591 1572.81C909.934 1566.57 903.51 1553 875.825 1547.94L859.83 1545.03ZM848.857 1554.42C840.257 1554.42 838.911 1555.61 842.644 1560.11C845.235 1563.24 846.234 1566.97 844.759 1568.45C843.285 1569.92 844.46 1574.16 847.403 1577.7C850.596 1581.55 850.952 1584.05 848.329 1584.05C845.911 1584.05 843.022 1581.67 841.983 1578.76C840.944 1575.85 838.893 1574.7 837.356 1576.12C835.819 1577.53 835.73 1581.88 837.224 1585.77C840.063 1593.18 855.395 1591.34 860.756 1583C862.312 1580.57 864.147 1581.27 865.25 1584.58C866.424 1588.1 867.994 1586.83 869.481 1581.14C872.788 1568.49 862.007 1554.42 848.857 1554.42ZM855.467 1562.89C857.748 1562.89 860.94 1564.9 862.474 1567.39C866.814 1574.41 862.862 1575.44 856.789 1568.84C853.789 1565.58 853.186 1562.89 855.467 1562.89ZM809.991 1578.1L807.083 1589.61C805.503 1595.91 805.345 1603.84 806.686 1607.33C809.556 1614.82 857.883 1616.54 862.342 1609.32C863.821 1606.92 871.087 1602.51 878.471 1599.4C889.987 1594.55 892.875 1594.67 899.226 1600.19C908.404 1608.16 908.98 1601.82 900.151 1589.21C891.942 1577.48 874.66 1576.81 871.729 1588.02C868.949 1598.66 844.868 1610.78 832.731 1607.73C827.471 1606.41 820.234 1599.23 816.603 1591.73L809.993 1578.1L809.991 1578.1Z" fill="black"/>
</g>
<defs>
<clipPath id="clip0_206_46">
<rect width="1056.03" height="1153.81" fill="white" transform="translate(353.981 471.115)"/>
</clipPath>
</defs>
</svg>
