<svg width="1786" height="1865" viewBox="0 0 1786 1865" fill="none" xmlns="http://www.w3.org/2000/svg">
<path d="M1708.62 953.229C1706.05 946.467 1704.77 939.391 1704.77 932.291C1704.77 925.19 1706.05 918.093 1708.62 911.356L1776.63 732.812C1782.5 717.388 1785.34 701.335 1785.34 685.548C1785.36 641.747 1763.59 599.492 1725.2 574.414L1565.19 469.943C1553.13 462.075 1544.35 449.973 1540.59 436.037L1490.66 251.6C1474.89 193.484 1422.24 153.536 1362.56 153.51C1360.32 153.51 1358.09 153.583 1355.82 153.703L1359.19 153.51L1165.54 163.208L1162.19 163.281C1148.74 163.281 1135.72 158.708 1125.23 150.287L976.436 30.4479C952.202 10.8809 922.603 1.03733 893.192 1.06279C863.76 1.03733 834.16 10.8809 809.879 30.4479L809.904 30.4733L661.109 150.294C650.64 158.716 637.573 163.288 624.143 163.288L621.979 163.241L430.441 153.71H430.805C428.182 153.568 425.847 153.543 423.777 153.543C364.094 153.543 311.464 193.517 295.702 251.607L245.768 436.044C242.014 449.976 233.229 462.082 221.17 469.951L61.1634 574.421C22.7787 599.499 0.974559 641.779 1.00002 685.577C1.00002 701.364 3.8374 717.392 9.68677 732.794L77.7439 911.36C80.2939 918.097 81.5961 925.197 81.5961 932.294C81.5961 939.395 80.3193 946.47 77.7439 953.207L9.70859 1131.79C3.8374 1147.17 1.00002 1163.2 1.00002 1178.99C0.974559 1222.78 22.7533 1265.09 61.1634 1290.19L221.17 1394.66C233.229 1402.53 242.01 1414.59 245.768 1428.52L295.702 1612.96C311.467 1671.07 364.119 1711.02 423.777 1711.02C425.847 1711.02 428.036 1710.99 430.397 1710.87L621.284 1701.34L621.644 1701.32L624.241 1701.25C637.599 1701.27 650.618 1705.84 661.109 1714.29L809.904 1834.16C834.16 1853.7 863.734 1863.54 893.192 1863.54C922.599 1863.54 952.202 1853.73 976.458 1834.16L1125.25 1714.29C1135.74 1705.82 1148.74 1701.25 1162.12 1701.25L1164.98 1701.34L1354.98 1710.82L1356.26 1710.87C1358.23 1710.97 1360.32 1711.02 1362.56 1711.02C1422.22 1711.02 1474.9 1671.09 1490.66 1612.96L1540.59 1428.52C1544.35 1414.59 1553.11 1402.53 1565.17 1394.66L1725.2 1290.19C1763.58 1265.07 1785.36 1222.81 1785.34 1179.01C1785.34 1163.22 1782.5 1147.17 1776.63 1131.77L1708.62 953.229ZM1684.75 1228.32L1524.76 1332.76C1497.5 1350.55 1477.74 1377.76 1469.22 1409.22L1419.29 1593.63C1412.35 1619.41 1388.94 1637.1 1362.56 1637.1L1359.34 1637.02L1172.14 1627.66L1168.88 1627.52C1166.72 1627.4 1164.48 1627.32 1162.12 1627.32C1131.9 1627.32 1102.49 1637.67 1078.85 1656.73L930.06 1776.6C919.256 1785.29 906.31 1789.59 893.192 1789.59C880.053 1789.59 867.103 1785.29 856.302 1776.6L707.507 1656.73C683.877 1637.67 654.467 1627.32 624.241 1627.32C622.27 1627.35 620.007 1627.37 617.577 1627.52L426.738 1637.05L423.777 1637.1C397.426 1637.12 374.01 1619.39 367.08 1593.66L317.146 1409.2C308.626 1377.77 288.867 1350.55 261.577 1332.77L101.592 1228.3C84.579 1217.21 74.9501 1198.44 74.9283 1178.99C74.9283 1172.01 76.1797 1164.98 78.777 1158.15L146.809 979.566C152.607 964.357 155.521 948.333 155.521 932.302C155.521 916.274 152.607 900.246 146.809 885.012L78.777 706.497C76.176 699.615 74.9283 692.565 74.9283 685.584C74.9501 666.141 84.5536 647.418 101.567 636.323L261.602 531.856C288.867 514.025 308.626 486.804 317.146 455.378L367.08 270.919C374.014 245.194 397.455 227.457 423.777 227.482L426.378 227.529L427.196 227.577L615.533 236.984L617.744 237.082L624.147 237.224C654.397 237.224 683.804 226.922 707.486 207.89L856.281 88.0212L833.105 59.24L856.306 87.9957C867.11 79.309 880.056 75.0275 893.196 74.9765C906.313 75.002 919.26 79.309 930.063 88.0212L1078.88 207.868C1102.57 226.951 1132 237.227 1162.2 237.227C1164.44 237.227 1166.48 237.18 1168.34 237.107L1362.97 227.387L1359.73 227.555L1362.56 227.46C1388.91 227.46 1412.36 245.197 1419.29 270.923L1469.22 455.382C1477.74 486.811 1497.5 514.028 1524.76 531.838L1684.77 636.33C1701.79 647.425 1711.42 666.148 1711.42 685.57C1711.42 692.55 1710.19 699.575 1707.54 706.53L1639.55 885.045C1633.73 900.279 1630.84 916.307 1630.84 932.309C1630.84 948.336 1633.76 964.364 1639.55 979.573L1707.56 1158.12C1710.19 1165.02 1711.42 1172.05 1711.42 1179.03C1711.42 1198.43 1701.79 1217.2 1684.75 1228.32Z" fill="black" stroke="black" stroke-width="1.30208"/>
<g clip-path="url(#clip0_511_3)">
<path d="M905.94 393.197C858.67 393.92 810.932 400.681 765.017 416.214L768.454 425.209C765.23 430.252 764.899 439.14 767.397 453.384C768.61 460.301 769.047 464.294 768.058 467.273C766.323 468.595 764.585 470.517 763.034 472.961C761.885 473.689 760.516 474.392 758.936 475.209L747.699 481.03L752.723 518.332C755.439 538.908 757.881 556.117 758.143 556.561C758.405 557.005 763.535 554.838 769.644 551.667C778.017 547.32 783.223 547.024 790.796 550.476C796.321 552.995 800.843 556.495 800.843 558.281C800.843 565.23 777.974 579.048 766.471 579.048C757.073 579.048 754.309 581.051 754.309 587.779C754.309 592.55 751.211 602.431 747.435 609.736C742.347 619.58 741.342 629.212 743.204 647.039C745.965 673.464 739.297 684.87 721.392 684.87C716.456 684.87 710.958 687.514 709.098 690.691C707.237 693.867 699.474 699.654 691.912 703.522C678.772 710.242 673.002 722.966 683.055 722.966C686.16 722.966 686.994 728.166 685.435 737.781C682.648 754.964 684.624 756.053 697.729 743.734L707.38 734.739L721.921 743.734L736.595 752.861L748.625 742.676C764.425 729.48 785.671 718.733 795.952 718.733C802.667 718.733 805.121 723.572 809.304 745.188C812.119 759.739 815.26 784.61 816.31 800.347C818.586 834.451 813.158 839.523 791.59 823.364C773.331 809.684 752.441 799.158 743.337 799.158C739.333 799.158 732.4 795.996 728.003 792.015C721.454 786.085 719.405 785.726 716.501 790.427C710.798 799.661 700.566 792.568 691.384 772.967C684.228 757.692 683.145 756.767 685.038 767.411C688.561 787.212 696.181 799.76 707.116 803.919C716.054 807.32 716.914 809.763 714.916 825.745C704.728 907.244 702.193 957.715 706.984 985.669C709.766 1001.9 712.007 1023.39 712.007 1033.42C712.007 1052.57 721.837 1066.33 739.504 1071.78C744.158 1073.22 759.386 1085.84 773.346 1099.96C787.306 1114.08 804.681 1129.26 811.815 1133.69C824.253 1141.4 824.969 1143.54 829.794 1185.28C836.799 1245.87 837.208 1243.16 818.689 1246.12C809.284 1247.63 796.347 1254.4 787.227 1262.53C778.599 1270.21 762.702 1278.66 751.401 1281.57C669.623 1302.67 631.638 1315.02 597.788 1331.71L566.061 1347.31L565.664 1353.14L534.202 1359.35C139.281 1770.77 509.296 1359.47 558.131 1476.29C552.372 1479.47 546.844 1482.9 541.87 1487C547.767 1484.56 553.857 1482.86 559.981 1481.58C560.35 1482.81 560.729 1483.96 561.039 1485.28C561.253 1483.96 561.485 1482.63 561.7 1481.31C562.713 1481.11 563.723 1480.96 564.74 1480.78C565.329 1482.86 566.3 1483.95 567.781 1483.03C568.633 1482.5 569.236 1481.33 569.631 1479.99C571.783 1479.67 573.947 1479.34 576.109 1479.06C588.495 1477.52 601.005 1476.69 613.918 1475.36C626.156 1474.16 638.988 1472.33 652.255 1468.08C661.102 1465.34 670.11 1461.04 678.43 1454.33C679.311 1456.83 680.009 1458.76 680.942 1461.47C685.714 1475.32 691.378 1487.17 693.632 1487.93C695.887 1488.68 700.917 1483.1 704.737 1475.49L711.611 1461.6L711.215 1483.17C710.973 1495.02 713.502 1510.8 716.767 1518.22L722.584 1531.71L725.492 1515.71C729.007 1495.51 724.756 1429.86 719.94 1429.86C717.959 1429.86 716.238 1426.03 716.238 1421.26C716.238 1416.49 711.772 1408.4 706.324 1403.27C694.501 1392.14 689.208 1370.01 696.409 1362C699.191 1358.9 696.004 1359.79 689.27 1363.98C678.017 1370.99 676.707 1371.02 673.142 1364.65C673.007 1364.4 672.887 1364.21 672.745 1363.98L673.274 1363.19C673.006 1363.33 672.656 1363.38 672.349 1363.45C670.281 1360.43 667.636 1358.69 666.136 1359.62C664.435 1360.67 662.863 1358.4 662.566 1354.46C661.996 1346.88 678.803 1336.74 692.046 1336.74C701.776 1336.74 697.584 1344.56 685.172 1349.57C676.674 1353 676.903 1353.15 687.551 1353.4C693.812 1353.55 699.994 1355.57 701.432 1357.9C705.682 1364.78 748.263 1363.08 754.311 1355.78C757.208 1352.29 762.561 1349.43 766.077 1349.43C774.304 1349.43 809.957 1386.05 816.84 1401.55C821.464 1411.96 824.126 1413.28 837.992 1412.13C848.427 1411.27 853.981 1408.64 854.253 1404.46C855.21 1389.76 856.127 1387.19 859.673 1389.38C861.729 1390.65 865.589 1386.49 868.266 1380.12C871.638 1372.09 880.23 1365.48 896.159 1358.56C908.803 1353.07 928.131 1340.2 939.256 1329.99C950.487 1319.68 967.006 1309.32 976.402 1306.71C985.709 1304.12 1001.71 1297.11 1011.96 1291.1C1028.09 1281.64 1059.2 1269.04 1096.97 1256.57C1117.28 1249.87 1165.91 1226.49 1163.86 1224.43C1162.72 1223.29 1152.8 1226.43 1141.78 1231.31C1122.21 1239.97 1095.52 1250.04 1035.63 1271.79C1007.54 1281.98 908.361 1311.19 901.182 1311.34C899.331 1311.37 893.174 1306.63 887.433 1300.89C877.995 1291.44 877.231 1288.1 879.502 1265.96C880.13 1259.84 880.527 1255.29 880.559 1252.08C881.205 1248.31 881.638 1244.62 882.013 1241.1C882.524 1237.11 882.917 1233.31 883.335 1229.46C884.047 1226.4 884.39 1222.83 884.525 1219.27C885.285 1213.7 886.326 1208.5 887.83 1203.93L883.6 1204.06L883.864 1202.87C903.617 1207.44 924.119 1209.76 944.279 1208.42C967.261 1208.9 990.505 1207.32 1013.55 1202.34C1035.41 1196.05 1056.83 1184.68 1075.02 1166.76C1075.44 1166.48 1075.93 1166.24 1076.34 1165.96L1076.21 1165.83C1076.42 1165.77 1076.64 1165.75 1076.87 1165.7C1085.66 1163.75 1089.83 1158.22 1087.98 1153.13C1089.56 1152.98 1091.15 1152.77 1092.74 1152.6C1091.19 1152.44 1089.65 1152.24 1088.11 1152.07C1090.17 1149.38 1092.14 1146.66 1094.06 1143.74C1083.06 1137.9 1071.14 1129.5 1057.04 1121.12C1042.1 1123.91 1027.7 1126.61 1015.67 1128.66L1016.19 1131.7C1015.84 1131.56 1015.49 1131.45 1015.14 1131.31C1013.61 1130.68 1012.04 1130.07 1010.51 1129.45C988.322 1133.05 977.906 1133.4 998.745 1124.82C998.259 1124.64 997.778 1124.48 997.291 1124.29C1002.86 1122.54 1008.32 1120.78 1013.68 1119V1119.14C1016.36 1118.16 1019 1117.2 1022.14 1116.09C1039.02 1110.36 1053.6 1104.98 1062.07 1101.01C1083.99 1090.77 1086.14 1088.26 1084.54 1072.97C1083.62 1064.18 1095.66 1048.9 1103.58 1048.9C1106.45 1048.9 1110.05 1044.13 1111.51 1038.31C1112.97 1032.49 1117.13 1027.73 1120.76 1027.73C1124.4 1027.73 1138.39 1021.27 1151.96 1013.31L1176.68 998.896L1171 1012.26C1166.32 1023.47 1166.4 1027.55 1171.13 1036.33C1176.5 1046.29 1175.92 1047.35 1161.21 1056.7C1145.81 1066.5 1145.75 1066.65 1158.31 1063.84C1189.74 1056.83 1201.13 1056.74 1206.69 1063.45C1209.75 1067.14 1214.5 1070.06 1217.27 1070.06C1225.23 1070.06 1240.95 1046.14 1247.14 1024.43C1261.89 972.689 1285.8 918.488 1298.7 907.625C1305.95 901.523 1314.98 888.727 1318.79 879.185C1330.3 850.409 1331.92 756.686 1320.78 763.575C1318.73 764.839 1316.94 751.561 1316.94 734.078C1316.94 698.716 1310.38 662.022 1301.61 648.627C1298.44 643.788 1295.49 635.033 1295 629.05C1294.46 622.514 1292.34 619.271 1289.18 620.056C1289.18 620.047 1289.05 620.064 1289.05 620.056C1288.9 620.098 1288.8 620.132 1288.65 620.188C1285.65 621.341 1283.1 620.322 1283.1 617.939C1283.1 615.739 1285.05 613.455 1287.46 612.384C1288.1 614.932 1288.52 617.479 1289.05 620.056C1288.69 617.352 1288.34 614.676 1287.86 611.987C1287.9 611.974 1287.96 612 1287.99 611.987C1294 609.982 1289.89 590.607 1281.65 582.356C1280.85 581.561 1279.97 580.557 1279.13 579.446C1279.1 579.399 1279.04 579.36 1279 579.314C1275.81 570.675 1271.92 562.183 1267.5 554.049C1256.26 533.355 1241.44 514.689 1224.27 498.36C1186.9 462.855 1139.81 438.121 1090.88 421.507C1038.13 403.506 982.283 394.272 926.173 393.199C919.447 393.059 912.699 393.096 905.946 393.199L905.94 393.197ZM1013.68 1119.14C1007.56 1121.37 1002.61 1123.23 998.743 1124.82C1002.72 1126.32 1006.62 1127.89 1010.51 1129.45C1012.22 1129.18 1013.82 1128.97 1015.66 1128.66L1013.68 1119.14ZM673.28 1363.19C674.297 1362.67 674.932 1361.79 675.13 1360.28L673.28 1363.19ZM933.448 424.428C935.67 436.907 943.93 441.664 970.067 447.709C975.883 449.054 986.728 449.487 994.127 448.635C1004.27 447.466 1007.01 445.421 1005.1 440.433C1003.43 436.071 1004.22 434.844 1007.48 436.862C1010.2 438.545 1012.37 437.872 1012.37 435.407C1012.37 432.941 1010.47 430.909 1008.14 430.909C1006.19 430.909 1004.66 429.031 1004.17 426.544C1031.45 429.138 1058.51 433.758 1085.08 440.83C1132.98 453.659 1179.53 473.762 1217.8 505.515C1220.46 507.714 1223.04 510.081 1225.6 512.393C1225.11 513.171 1225.2 514.276 1226 515.568C1227.44 517.896 1229.47 519.801 1230.5 519.801C1231.09 519.801 1231.61 519.193 1231.95 518.213C1238.11 524.186 1243.97 530.475 1249.4 537.129V548.108C1249.39 555.48 1251.65 562.41 1254.56 563.585C1258.79 565.293 1258.79 565.83 1254.56 566.098C1247.12 566.568 1247.95 578.896 1255.61 581.839C1259.1 583.179 1261.96 587 1261.96 590.437C1261.96 593.874 1260.53 596.044 1258.79 595.199C1205.43 569.349 1186.83 561.688 1160.43 554.457C1097.84 537.312 1061.27 531.725 1007.48 531.177C1011.34 526.738 1014.1 520.223 1015.28 511.732C1015.08 504.679 1013.32 497.869 1010.12 491.759C1006.73 485.539 1002.5 480.518 997.96 476.679C986.985 467.514 975.193 462.149 964.118 458.821C936.763 450.163 908.906 447.652 882.024 447.445C873.851 442.27 865.337 437.531 856.51 433.159C879.505 428.706 903.032 425.903 926.706 424.693C928.961 424.582 931.192 424.512 933.448 424.428ZM974.959 424.56C979.89 424.755 984.839 424.89 989.765 425.222C990.721 426.26 991.219 427.429 991.219 428.793C991.219 435.118 985.459 436.44 975.356 432.365C970.423 430.375 971.148 426.826 974.959 424.56ZM898.153 439.905C896.236 439.905 894.319 440.243 892.865 440.83C889.956 442.005 892.336 442.947 898.153 442.947C903.969 442.947 906.349 442.005 903.441 440.83C901.986 440.243 900.069 439.905 898.153 439.905ZM947.727 475.355C947.324 475.622 946.945 475.888 946.537 476.149C946.486 476.115 946.456 476.049 946.405 476.017C946.845 475.787 947.29 475.592 947.727 475.355ZM959.096 496.123C961.413 496.503 963.781 496.951 966.103 497.446C967.769 498.511 969.374 499.578 970.73 500.753C969.932 500.489 969.136 500.232 968.35 499.959C968.531 499.835 968.699 499.687 968.879 499.562C965.567 498.463 962.337 497.311 959.096 496.123ZM980.248 502.472C979.99 502.63 979.812 503.163 979.587 503.53C979.226 503.425 978.89 503.24 978.53 503.134C979.46 502.907 979.825 502.634 980.248 502.472ZM968.483 560.409C1021.74 558.962 1111.88 577.48 1125.53 595.066C1132.66 604.244 1132.2 609.011 1124.48 606.045C1120.99 604.705 1118.13 605.716 1118.13 608.293C1118.13 610.871 1120.99 612.923 1124.48 612.923C1132.6 612.923 1132.62 619.064 1124.48 627.209C1119.38 632.313 1119.06 635.721 1122.89 644.141C1125.64 650.174 1126.5 661.128 1124.87 669.803C1121.97 685.285 1118.75 687.985 1111.65 680.914C1109.12 678.39 1107.44 681.519 1107.16 689.38C1106.91 696.238 1108.34 701.814 1110.33 701.814C1112.32 701.814 1113.9 703.999 1113.9 706.576C1113.9 709.153 1110.93 710.091 1107.29 708.692C1102.21 706.74 1101.27 708.166 1103.32 714.645H1103.46C1105.71 721.735 1104.22 723.002 1094.2 722.846C1080.17 722.627 1054.68 714.001 1040.53 704.724C1027.37 696.095 983.862 683.581 976.68 686.338C970.834 688.582 927.767 677.397 927.767 673.639C927.767 672.465 933.954 672.731 941.516 674.168C954.201 676.578 954.597 676.419 946.143 671.39C941.103 668.392 933.004 660.768 928.164 654.592C921.379 645.934 914.361 642.802 897.23 640.703C857.515 635.835 839.193 637.633 815.665 648.771C791.463 660.228 781.818 661.933 777.856 655.517C775.338 651.44 795.905 629.856 802.313 629.856C804.272 629.856 813.766 623.443 823.465 615.57C853.669 591.051 899.715 571.391 948.26 562.261C954.029 561.177 960.878 560.616 968.487 560.409L968.483 560.409ZM1140.2 596.521C1145.23 596.529 1151.97 600.233 1151.97 604.325C1151.97 609.701 1147.6 609.904 1139.41 604.722C1135.99 602.556 1134.53 599.422 1136.11 597.843C1137.07 596.875 1138.53 596.518 1140.2 596.521ZM1145.23 622.845C1146.74 622.589 1147.74 623.509 1147.74 625.358C1147.74 627.823 1145.84 629.855 1143.51 629.855C1141.18 629.855 1139.28 629.03 1139.28 628.003C1139.28 626.977 1141.18 624.945 1143.51 623.506C1144.09 623.146 1144.72 622.93 1145.23 622.845ZM902.918 669.274C906.457 668.976 906.117 673.122 902.653 682.237C898.388 693.462 896.275 694.507 886.525 690.571C878.424 687.3 880.191 682.313 892.21 674.433C897.228 671.142 900.794 669.453 902.918 669.274ZM930.283 689.91C933.612 689.965 938.004 690.867 943.635 692.556C952.462 695.202 963.569 696.321 968.356 695.069C973.181 693.806 987.701 697.637 1000.88 703.667C1013.95 709.648 1027.03 714.864 1030.09 715.175C1033.15 715.486 1026.13 717.198 1014.49 719.011C980.17 724.36 969.408 722.934 943.371 709.487C926.041 700.537 920.012 695.294 923.145 692.158C924.712 690.59 926.954 689.854 930.283 689.91ZM726.569 697.847C730.477 697.418 733.179 702.218 733.179 712.133C733.179 729.432 728.874 733.237 718.108 725.36C711.026 720.178 710.854 718.548 716.125 708.694C719.838 701.752 723.529 698.18 726.569 697.847ZM824.527 720.069C826.091 720.174 827.698 721.907 829.022 725.361C830.562 729.377 829.216 733.942 825.849 736.075C822.6 738.133 822.067 739.877 824.659 739.911C827.325 739.949 829.418 747.264 829.418 756.843C829.418 766.155 828.604 773.775 827.7 773.775C824.026 773.775 817.785 751.163 817.785 737.795C817.785 726.948 821.087 719.838 824.527 720.069ZM935.177 731.71C940.48 731.71 944.695 732.983 944.695 735.678C944.695 738.006 937.556 739.945 928.832 739.911C917.032 739.863 914.593 738.73 919.313 735.678C923.482 732.983 929.874 731.71 935.177 731.71ZM1029.17 739.779C1058.53 739.051 1097.86 745.561 1135.06 758.166C1160.4 766.75 1181.25 771.709 1183.71 769.674C1190.51 764.059 1218.64 759.882 1230.24 762.795C1241.44 765.608 1250.88 777.541 1255.63 794.939C1258.19 804.367 1257.59 804.172 1250.21 792.558C1237.45 772.495 1220.24 767.048 1191.11 774.039C1177.96 777.196 1163.81 783.232 1159.65 787.399C1155.49 791.566 1150.31 794.939 1148.15 794.939C1140.26 794.939 1141.73 809.793 1151.59 829.727C1161.34 849.439 1161.41 850.479 1154.1 858.564C1149.93 863.174 1144.06 866.898 1141.01 866.898C1134.22 866.898 1125.32 882.483 1128.85 888.194C1133.22 895.269 1142.52 892.713 1144.84 883.829C1147.45 873.842 1159.68 872.8 1171.28 881.581C1175.8 884.998 1182.81 887.856 1186.88 887.93C1190.96 888.004 1194.29 890.792 1194.29 894.147C1194.29 910.459 1211.78 905.706 1223.9 886.078C1235.73 866.92 1234.56 864.809 1218.61 875.893C1205.66 884.893 1205.4 884.918 1212.66 876.554C1218.73 869.566 1220.07 861.714 1219.27 839.648C1217.96 803.316 1224 796.73 1237.25 819.938C1247.88 838.555 1253.37 841.737 1253.91 829.859C1254.12 825.088 1255 824.461 1256.42 828.007C1259.33 835.281 1249.39 858.979 1244.65 856.05C1242.62 854.794 1241.83 856.326 1242.94 859.357C1246.06 867.931 1222.38 902.261 1202.09 918.617C1172.88 942.16 1144.59 949.145 1130.3 936.21C1124.17 930.657 1121.29 930.34 1116.29 934.49C1107.61 941.697 1102 936.835 1104.39 924.305C1106.92 911.094 1095.02 898.363 1081.79 900.098C1070.1 901.631 1053.48 893.514 1056.93 887.929C1060.54 882.098 1053.19 882.999 1039.62 890.045C1025.64 897.301 1017.11 894.032 1028.11 885.68C1034.79 880.617 1034.78 879.845 1028.78 879.727C1018.98 879.536 1013.34 887.913 1011.72 904.992C1010.95 913.131 1008.36 919.905 1006.04 919.939C1003.71 919.973 999.318 921.567 996.255 923.511C993.192 925.454 989.621 925.999 988.323 924.701C987.305 923.682 984.559 925.053 981.581 927.744C979.283 927.984 977 928.195 974.707 928.405L972.063 926.818C971.948 927.274 971.887 927.705 971.799 928.14C968.364 927.256 965.048 926.222 961.884 924.966L962.148 929.463C961.092 929.544 960.029 929.672 958.976 929.728C960.968 925.525 956.838 925.105 947.21 928.802C946.378 929.121 945.567 929.591 944.831 930.125C933.036 930.212 921.387 929.534 910.063 928.008C909.147 927.1 906.021 926.196 900.281 925.098C895.807 924.242 893.369 924.156 892.613 924.833C886.833 923.524 881.181 921.926 875.691 920.072L871.99 942.558C870.515 936.977 869.379 930.61 868.553 924.436L877.013 907.107C877.066 907.073 877.095 907.008 877.146 906.975C879.742 905.286 881.14 902.381 881.244 898.774C881.245 898.73 881.243 898.686 881.244 898.642L884.681 891.763C883.25 891.943 881.726 891.985 880.186 891.895C878.766 887.229 875.849 882.265 871.725 878.139C862.178 868.585 859.057 850.277 866.041 845.201C868.093 843.709 865.714 841.221 860.753 839.645C849.485 836.067 849.219 828.873 860.092 815.042C864.745 809.122 868.553 801.096 868.553 797.317C868.553 793.537 871.884 789.454 875.956 788.19C880.027 786.925 896.685 779.334 912.971 771.391C929.258 763.448 951.149 755.824 961.62 754.459C972.09 753.095 987.734 749.109 996.387 745.465C1004.5 742.046 1015.83 740.107 1029.17 739.777L1029.17 739.779ZM841.444 740.837C848.061 739.971 872.21 762.057 869.998 767.822C868.724 771.143 866.471 773.872 864.975 773.906C863.479 773.94 858.204 775.078 853.209 776.42C845.273 778.55 843.775 776.584 841.179 761.208C839.545 751.53 839.145 742.608 840.386 741.366C840.659 741.093 841.003 740.895 841.444 740.837ZM1137.83 788.324C1135.46 788.47 1132.07 788.974 1127.65 789.647C1116.63 791.327 1114.77 792.918 1118.53 797.451C1122.47 802.193 1124.88 802.024 1133.47 796.393C1143.01 790.142 1144.96 787.887 1137.83 788.324ZM815.404 844.806C826.478 845.092 833.961 851.05 836.028 861.87C839.288 878.935 835.361 883.897 819.503 882.77C811.605 882.208 805.098 880.688 805.094 879.33C805.089 877.972 802.238 876.817 798.748 876.817C791.217 876.817 791.183 877.641 796.897 888.325C801.889 897.658 801.684 897.764 774.556 888.59C768.184 886.435 762.514 883.836 758.825 881.579C766.397 873.504 773.314 864.224 778.918 853.537C783.982 852.57 791.513 850.373 798.219 847.981C804.544 845.725 810.371 844.677 815.404 844.806ZM733.971 878.802C733.008 881.021 731.931 883.279 730.93 885.548C730.813 884.638 731.11 883.443 731.723 881.844C732.195 880.615 732.988 879.612 733.971 878.802ZM1150.13 894.014C1148.92 894.056 1147.67 894.33 1146.43 894.807C1137.15 898.373 1137.29 911.943 1146.7 917.427C1157.37 923.648 1159.65 923.057 1162.82 913.062C1165.89 903.413 1158.63 893.726 1150.13 894.014ZM768.745 918.881C774.996 918.76 782.061 919.667 788.706 921.659C821.325 931.438 851.927 971.115 832.596 978.538C829.106 979.878 826.251 979.124 826.251 976.951C826.251 974.778 822.443 970.977 817.79 968.485C811.01 964.854 809.329 965.31 809.329 970.602C809.329 974.233 814.088 978.971 819.905 981.184C825.722 983.397 830.481 988.158 830.481 991.766C830.481 995.373 835.716 1000.46 842.114 1003.01C849.375 1005.9 851.727 1008.45 848.195 1009.76C845.083 1010.9 840.388 1009.75 837.884 1007.24C834.632 1003.99 831.135 1005.21 825.589 1011.61C821.317 1016.54 817.79 1021.77 817.79 1023.25C817.79 1027.67 801.193 1026.34 799.679 1021.79C798.909 1019.48 791.433 1017.16 783.154 1016.63C774.875 1016.1 760.701 1012.25 751.692 1008.17C742.682 1004.09 732.649 1000.65 729.351 1000.5C718.699 1000.01 720.114 991.74 732.92 979.464C744.382 968.476 747.46 967.557 769.803 969.411C783.206 970.524 794.822 973.61 795.714 976.29C798.654 985.112 804.269 981.381 803.646 970.999C803.311 965.402 801.292 962.004 799.152 963.327C797.011 964.649 796.476 962.571 797.962 958.697C799.448 954.823 799.267 951.554 797.565 951.554C795.863 951.554 792.591 947.258 790.294 942.03C784.488 928.813 764.471 919.653 756.319 926.421C752.104 929.922 750.106 930.032 750.106 926.818C750.106 922.003 758.326 919.084 768.745 918.881ZM998.498 1190.18C998.194 1190.35 997.88 1190.53 997.573 1190.71C995.671 1190.87 993.769 1191.1 991.889 1191.23C994.095 1190.88 996.297 1190.52 998.498 1190.18ZM1258.67 1194.94L1250.87 1203.01L1229.19 1225.23C1258.94 1248.19 1293.05 1257.22 1325.43 1261.08C1337.03 1262.55 1348.62 1263.4 1360.19 1263.72C1360.41 1263.73 1360.63 1263.72 1360.85 1263.72C1379.69 1265.13 1399.15 1264.48 1406.73 1261.87C1407.84 1261.75 1408.92 1261.61 1410.03 1261.47C1409.41 1261.4 1408.8 1261.29 1408.18 1261.21C1409.34 1260.63 1410.03 1259.96 1410.03 1259.23C1410.03 1253.58 1361.33 1240.9 1336 1239.91C1330.56 1239.7 1325.15 1238.8 1319.74 1237.53C1319.61 1237.5 1319.48 1237.43 1319.35 1237.4C1294.62 1226.83 1272.1 1213.36 1258.67 1194.94ZM1285.5 1200.76C1280.7 1200.77 1282.87 1205.15 1294.76 1211.6C1301.16 1215.08 1310.13 1217.99 1314.59 1218.09C1324.67 1218.3 1323.43 1217.32 1301.1 1206.05C1293.77 1202.35 1288.39 1200.75 1285.5 1200.76ZM1251.66 1245.86C1250.47 1245.95 1249.37 1246.01 1248.22 1246.26C1243.42 1246.89 1238.64 1248.9 1234.61 1251.95C1230.31 1255.31 1227.63 1259.84 1226.54 1264.65C1225.41 1270.89 1226.51 1276.15 1228.53 1280.52C1231.62 1287.43 1236.09 1292.83 1240.82 1297.72C1238.74 1291.25 1237.3 1284.71 1237.65 1278.67C1237.94 1274.91 1238.73 1271.46 1240.56 1269.94C1241.69 1268.94 1243.3 1268.5 1244.39 1268.75C1244.84 1268.76 1245.25 1268.98 1245.71 1269.15C1244.78 1269.09 1243.09 1269.39 1241.22 1270.6L1270.83 1300.76C1274.84 1296.01 1278.62 1288.82 1280.75 1279.73C1282.3 1272.87 1280.98 1265.34 1277.04 1258.43C1269.39 1248.73 1260.02 1245.26 1251.66 1245.86ZM1246.37 1269.28C1246.98 1269.49 1247.65 1269.65 1248.22 1269.94C1250.66 1271.92 1252.28 1273.9 1248.89 1273.11C1247.7 1271.5 1246.54 1270.42 1246.37 1269.28ZM648.308 1352.48C648.295 1352.52 648.321 1352.57 648.308 1352.61C648.097 1352.84 647.849 1353.04 647.647 1353.27C647.617 1353.2 647.677 1353.09 647.647 1353.01C647.859 1352.85 648.099 1352.64 648.308 1352.48ZM606.269 1389.65C606.212 1390 606.195 1390.36 606.137 1390.71C606.016 1390.48 605.86 1390.27 605.74 1390.05C605.927 1389.92 606.075 1389.77 606.269 1389.65ZM752.743 1415.05L749.57 1431.98C745.599 1453.33 745.009 1529.14 748.777 1532.91C750.328 1534.46 758.717 1535.68 767.416 1535.68C782.527 1535.68 783.487 1534.78 789.889 1515.58C796.488 1495.79 796.425 1495.67 788.699 1505.66L780.9 1515.84L777.859 1495.08C776.18 1483.68 772.222 1468.59 769.134 1461.61C766.046 1454.62 761.15 1441.29 758.162 1431.98L752.743 1415.05ZM565.684 1457.24C565.924 1458.52 566.115 1459.82 566.345 1461.08C565.098 1464.53 564.296 1468.96 564.097 1472.98C563.727 1473.17 563.409 1473.46 563.04 1473.65C563.932 1468.18 564.746 1462.7 565.684 1457.24ZM859.829 1467.03L869.48 1482.11C876.767 1493.5 881.204 1496.59 887.59 1494.81C909.933 1488.57 903.51 1475 875.825 1469.94L859.829 1467.03ZM848.857 1476.42C840.256 1476.42 838.91 1477.61 842.644 1482.11C845.235 1485.24 846.233 1488.97 844.759 1490.45C843.284 1491.92 844.46 1496.16 847.403 1499.7C850.596 1503.55 850.951 1506.05 848.328 1506.05C845.91 1506.05 843.021 1503.67 841.983 1500.76C840.944 1497.85 838.892 1496.7 837.356 1498.12C835.819 1499.53 835.729 1503.88 837.223 1507.77C840.062 1515.18 855.394 1513.34 860.755 1505C862.312 1502.57 864.147 1503.27 865.25 1506.58C866.423 1510.1 867.994 1508.83 869.48 1503.14C872.788 1490.49 862.007 1476.42 848.857 1476.42ZM855.467 1484.89C857.748 1484.89 860.939 1486.9 862.473 1489.39C866.814 1496.41 862.862 1497.44 856.789 1490.84C853.789 1487.58 853.186 1484.89 855.467 1484.89ZM809.991 1500.1L807.083 1511.61C805.503 1517.91 805.344 1525.84 806.686 1529.33C809.556 1536.82 857.882 1538.54 862.342 1531.32C863.821 1528.92 871.086 1524.51 878.47 1521.4C889.986 1516.55 892.874 1516.67 899.225 1522.19C908.403 1530.16 908.98 1523.82 900.151 1511.21C891.941 1499.48 874.659 1498.81 871.728 1510.02C868.949 1520.66 844.867 1532.78 832.731 1529.73C827.471 1528.41 820.233 1521.23 816.603 1513.73L809.993 1500.1L809.991 1500.1Z" fill="black"/>
</g>
<defs>
<clipPath id="clip0_511_3">
<rect width="1056.03" height="1153.81" fill="white" transform="translate(353.98 393.115)"/>
</clipPath>
</defs>
</svg>
